<svg width="24" height="24" viewBox="0 0 24 24" fill="none" xmlns="http://www.w3.org/2000/svg">
<path d="M3 21.5C3 21.7761 3.22386 22 3.5 22H4.5C4.77614 22 5 21.7761 5 21.5L5 2.5C5 2.22386 4.77614 2 4.5 2H3.5C3.22386 2 3 2.22386 3 2.5V21.5Z" fill="black"/>
<path d="M15.7836 6.375C15.8798 6.20833 16.1204 6.20833 16.2166 6.375L17.7322 9H16.75V12H15.25V9H14.2681L15.7836 6.375Z" fill="black"/>
<path d="M8.21639 15.625C8.12016 15.7917 7.8796 15.7917 7.78338 15.625L6.26783 13H7.25V10H8.75V13H9.73194L8.21639 15.625Z" fill="black"/>
<path d="M11.5 22C11.2239 22 11 21.7761 11 21.5L11 2.5C11 2.22386 11.2239 2 11.5 2H12.5C12.7761 2 13 2.22386 13 2.5L13 21.5C13 21.7761 12.7761 22 12.5 22H11.5Z" fill="black"/>
<path d="M19 21.5C19 21.7761 19.2239 22 19.5 22H20.5C20.7761 22 21 21.7761 21 21.5V2.5C21 2.22386 20.7761 2 20.5 2H19.5C19.2239 2 19 2.22386 19 2.5L19 21.5Z" fill="black"/>
</svg>
